<mxfile host="app.diagrams.net" modified="2022-10-15T09:03:58.069Z" agent="5.0 (Windows NT 10.0; Win64; x64) AppleWebKit/537.36 (KHTML, like Gecko) Chrome/106.0.0.0 Safari/537.36" etag="lFYEytmJeCKmTSn9WEW2" version="20.4.0" type="github">
  <diagram id="r8aYoyEcgSSI4uFeYt9M" name="Page-1">
    <mxGraphModel dx="1038" dy="621" grid="1" gridSize="10" guides="1" tooltips="1" connect="1" arrows="1" fold="1" page="1" pageScale="1" pageWidth="1700" pageHeight="1100" math="0" shadow="0">
      <root>
        <mxCell id="0" />
        <mxCell id="1" parent="0" />
        <mxCell id="0bUFk3Mi2gQXNVv01LSc-3" value="&lt;b&gt;&lt;font style=&quot;font-size: 34px;&quot;&gt;IoT&lt;/font&gt;&lt;/b&gt;" style="ellipse;whiteSpace=wrap;html=1;aspect=fixed;fillColor=none;align=center;" vertex="1" parent="1">
          <mxGeometry x="210" y="170" width="230" height="230" as="geometry" />
        </mxCell>
        <mxCell id="0bUFk3Mi2gQXNVv01LSc-6" value="&lt;b&gt;&lt;font style=&quot;font-size: 34px;&quot;&gt;CPS&lt;/font&gt;&lt;/b&gt;" style="ellipse;whiteSpace=wrap;html=1;aspect=fixed;fillColor=none;align=center;" vertex="1" parent="1">
          <mxGeometry x="380" y="170" width="230" height="230" as="geometry" />
        </mxCell>
      </root>
    </mxGraphModel>
  </diagram>
</mxfile>
